<svg width="18" height="10" viewBox="0 0 18 10" fill="none" xmlns="http://www.w3.org/2000/svg">
<path fill-rule="evenodd" clip-rule="evenodd" d="M16.941 0.694444C17.0646 0.302778 16.941 0.0180554 16.3941 0.0180554H14.5757C14.117 0.0180554 13.9052 0.267361 13.7816 0.534028C13.7816 0.534028 12.8462 2.81181 11.54 4.28854C11.1163 4.71562 10.9222 4.85799 10.6927 4.85799C10.5691 4.85799 10.4101 4.71562 10.4101 4.32431V0.676042C10.4101 0.213542 10.2691 0 9.88058 0H7.02085C6.73821 0 6.56183 0.213542 6.56183 0.427083C6.56183 0.871875 7.21495 0.978819 7.28544 2.22431V4.93056C7.28544 5.51771 7.18127 5.625 6.95002 5.625C6.33231 5.625 4.83196 3.32951 3.93196 0.713889C3.75696 0.195833 3.57919 0 3.12016 0H1.2844C0.754881 0 0.666687 0.248958 0.666687 0.515972C0.666687 0.996528 1.2844 3.41632 3.54377 6.6191C5.04412 8.8066 7.17988 9.98229 9.10384 9.98229C10.2691 9.98229 10.4101 9.71528 10.4101 9.27049V7.61562C10.4101 7.08194 10.516 6.99306 10.8868 6.99306C11.1514 6.99306 11.6281 7.13507 12.7049 8.18507C13.9403 9.43056 14.1521 10 14.8406 10H16.6587C17.1882 10 17.4354 9.73299 17.2941 9.21701C17.1354 8.70104 16.5351 7.95382 15.7584 7.06424C15.3347 6.56632 14.6993 6.01458 14.5052 5.74757C14.2406 5.39167 14.3111 5.24931 14.5052 4.92917C14.4875 4.92917 16.7118 1.76181 16.941 0.693056" fill="white"/>
</svg>
