<svg width="16" height="10" viewBox="0 0 16 10" fill="none" xmlns="http://www.w3.org/2000/svg">
<path d="M15.6359 1.54411C15.5435 1.24696 15.3673 0.976223 15.1243 0.758074C14.8813 0.539925 14.5798 0.381741 14.2488 0.29881C13.0066 8.56725e-06 8.00709 8.46041e-06 8.00709 8.46041e-06C8.00709 8.46041e-06 3.02023 -0.00595552 1.76538 0.29881C1.4344 0.381741 1.13285 0.539925 0.889871 0.758074C0.646891 0.976223 0.470701 1.24696 0.378331 1.54411C0.142852 2.68594 0.0267598 3.84504 0.031569 5.00627C0.027669 6.16312 0.143757 7.31778 0.378331 8.4553C0.470701 8.75245 0.646891 9.02319 0.889871 9.24134C1.13285 9.45949 1.4344 9.61767 1.76538 9.7006C3.00628 10 8.00709 10 8.00709 10C8.00709 10 12.9933 10 14.2488 9.7006C14.5798 9.61767 14.8813 9.45949 15.1243 9.24134C15.3673 9.02319 15.5435 8.75245 15.6359 8.4553C15.8655 7.31737 15.9767 6.16271 15.968 5.00627C15.9776 3.84545 15.8664 2.68636 15.6359 1.54411ZM6.41146 7.14797V2.858L10.5726 5.00627L6.41146 7.14797Z" fill="white"/>
</svg>
